<svg id="_x31__x2C_5" enable-background="new 0 0 36 36" height="512" viewBox="0 0 36 36" width="512" xmlns="http://www.w3.org/2000/svg"><path d="m8.377 31.833c6.917 0 11.667 3.583 15 3.583s10.333-1.916 10.333-17.249-9.417-17.584-13.083-17.584c-17.167 0-24.5 31.25-12.25 31.25z" fill="#f3f3f1"/><g fill="#a4afc1"><path d="m31.319 6.533h1v2h-1z" transform="matrix(.707 -.707 .707 .707 3.99 24.701)"/><path d="m27.254 2.467h1v2h-1z" transform="matrix(.707 -.707 .707 .707 5.674 20.637)"/><path d="m30.819 3.144h2v1h-2z" transform="matrix(.707 -.707 .707 .707 6.743 23.567)"/></g><path d="m29.25 10.75v1.5h-22.5v-1.5c0-1.1.9-2 2-2h18.5c1.1 0 2 .9 2 2z" fill="#2fdf84"/><path d="m29.25 12.25v15c0 1.1-.9 2-2 2h-18.5c-1.1 0-2-.9-2-2v-15z" fill="#efefef"/><circle cx="23.5" cy="12.5" fill="#efefef" r="5.75"/><path d="m11 8.75h-2.25c-1.1 0-2 .9-2 2v1.5h2.25v-1.5c0-1.1.9-2 2-2z" fill="#00b871"/><path d="m9 27.25v-15h-2.25v15c0 1.1.9 2 2 2h2.25c-1.1 0-2-.9-2-2z" fill="#d5dbe1"/><path d="m20 12.5c0-2.79 1.988-5.115 4.625-5.638-.364-.073-.74-.112-1.125-.112-3.176 0-5.75 2.574-5.75 5.75s2.574 5.75 5.75 5.75c.385 0 .761-.039 1.125-.112-2.637-.523-4.625-2.848-4.625-5.638z" fill="#d5dbe1"/><path d="m23.5 19c-3.584 0-6.5-2.916-6.5-6.5s2.916-6.5 6.5-6.5 6.5 2.916 6.5 6.5-2.916 6.5-6.5 6.5zm0-11.5c-2.757 0-5 2.243-5 5s2.243 5 5 5 5-2.243 5-5-2.243-5-5-5z"/><path d="m21 7.02h1.5v10.96h-1.5z"/><path d="m24.5 7.02h1.5v10.96h-1.5z"/><path d="m18.02 10h10.961v1.5h-10.961z"/><path d="m18.02 13.5h10.961v1.5h-10.961z"/><path d="m27.25 30h-18.5c-1.517 0-2.75-1.233-2.75-2.75v-16.5c0-1.517 1.233-2.75 2.75-2.75h6.85c.414 0 .75.336.75.75s-.336.75-.75.75h-6.85c-.689 0-1.25.561-1.25 1.25v16.5c0 .689.561 1.25 1.25 1.25h18.5c.689 0 1.25-.561 1.25-1.25v-8.18c0-.414.336-.75.75-.75s.75.336.75.75v8.18c0 1.517-1.233 2.75-2.75 2.75z"/><path d="m14.76 13h-8.01c-.414 0-.75-.336-.75-.75s.336-.75.75-.75h8.01c.414 0 .75.336.75.75s-.336.75-.75.75z"/><path d="m19.75 25.5c-.173 0-.347-.06-.488-.181-.314-.27-.351-.743-.081-1.058l1.081-1.261-1.081-1.262c-.27-.314-.233-.788.081-1.058.314-.269.788-.233 1.058.081l1.5 1.75c.241.281.241.695 0 .977l-1.5 1.75c-.149.173-.359.262-.57.262z"/><path d="m13.25 25.5c-.211 0-.421-.089-.569-.262l-1.5-1.75c-.241-.281-.241-.695 0-.977l1.5-1.75c.271-.314.744-.35 1.058-.081.314.27.351.743.081 1.058l-1.082 1.262 1.081 1.262c.27.314.233.788-.081 1.058-.141.12-.315.18-.488.18z"/><path d="m15.751 27c-.057 0-.113-.006-.17-.02-.403-.093-.655-.495-.562-.899l1.5-6.5c.093-.404.502-.657.899-.562.403.093.655.495.562.899l-1.5 6.5c-.08.348-.388.582-.729.582z"/></svg>