<svg id="_x31__x2C_5" enable-background="new 0 0 36 36" height="512" viewBox="0 0 36 36" width="512" xmlns="http://www.w3.org/2000/svg"><path d="m27.623 31.833c-6.917 0-11.667 3.583-15 3.583s-10.333-1.916-10.333-17.249 9.417-17.584 13.083-17.584c17.167 0 24.5 31.25 12.25 31.25z" fill="#efefef"/><g fill="#a4afc1"><path d="m28.467.967h1v2h-1z" transform="matrix(.707 -.707 .707 .707 7.093 21.059)"/><path d="m32.533 5.033h1v2h-1z" transform="matrix(.707 -.707 .707 .707 5.409 25.125)"/><path d="m31.857 1.467h2v1h-2z" transform="matrix(.707 -.707 .707 .707 8.233 23.809)"/></g><path d="m9.75 20.75v-7c0-.55.45-1 1-1h14.5c.55 0 1 .45 1 1v6l-5-4-4.59 3.64-2.16-1.64z" fill="#f3f3f1"/><path d="m16.63 19.41 4.62-3.66 5 4v2.5c0 .55-.45 1-1 1h-3.5-11c-.55 0-1-.45-1-1v-1.5l4.75-3z" fill="#2fdf84"/><path d="m12 13.75c0-.55.45-1 1-1h-2.25c-.55 0-1 .45-1 1v7l2.25-1.421z" fill="#d5dbe1"/><path d="m12 22.25v-1.5l3.507-2.215-1.007-.785-4.75 3v1.5c0 .55.45 1 1 1h2.25c-.55 0-1-.45-1-1z" fill="#00b871"/><path d="m9.437 30.016-.75-.017c-.957-.022-1.849-.553-2.325-1.386l-.373-.651 1.302-.745.372.65c.218.38.624.622 1.06.632l.749.018zm18.586-.016h-3.584v-1.5h3.561zm-6.205 0h-3.561v-1.5h3.561zm-6.182 0h-3.561v-1.5h3.561zm14.364-3.002h-1.5v-3.561h1.5zm-22.5-2.083h-1.5v-3.561h1.5zm22.5-4.099h-1.5v-3.562h1.5zm-22.5-2.083h-1.5v-3.562h1.5zm22.5-4.099h-1.5v-3.561h1.5zm-22.5-2.083h-1.5v-3.561h1.5zm21.207-3.778-.375-.649c-.222-.384-.618-.617-1.06-.624l-.75-.013.024-1.499.75.012c.96.016 1.854.542 2.335 1.374l.375.649zm-4.794-1.273h-3.561v-1.5h3.561zm-6.183 0h-3.56v-1.5h3.561v1.5zm-6.181 0h-3.549l-.013-1.5h3.562z"/><path d="m25.25 24h-14.5c-.965 0-1.75-.785-1.75-1.75v-8.5c0-.965.785-1.75 1.75-1.75h14.5c.965 0 1.75.785 1.75 1.75v8.5c0 .965-.785 1.75-1.75 1.75zm-14.5-10.5c-.138 0-.25.112-.25.25v8.5c0 .138.112.25.25.25h14.5c.138 0 .25-.112.25-.25v-8.5c0-.138-.112-.25-.25-.25z"/><path d="m21.297 23.848-6.836-5.186-4.311 2.722-.8-1.268 4.75-3c.265-.169.604-.153.854.036l7.25 5.5z"/><path d="m25.781 20.336-4.537-3.63-3.903 3.045-.922-1.182 4.37-3.41c.271-.215.658-.212.93.005l5 4z"/></svg>