<svg id="_x31__x2C_5" enable-background="new 0 0 36 36" height="512" viewBox="0 0 36 36" width="512" xmlns="http://www.w3.org/2000/svg"><path d="m8.377 31.833c6.917 0 11.667 3.583 15 3.583s10.333-1.916 10.333-17.249-9.417-17.584-13.083-17.584c-17.167 0-24.5 31.25-12.25 31.25z" fill="#efefef"/><g fill="#a4afc1"><path d="m22.467.967h1v2h-1z" transform="matrix(.707 -.707 .707 .707 5.336 16.816)"/><path d="m26.533 5.033h1v2h-1z" transform="matrix(.707 -.707 .707 .707 3.652 20.882)"/><path d="m25.856 1.467h2v1h-2z" transform="matrix(.707 -.707 .707 .707 6.475 19.566)"/></g><path d="m29.25 22.5v2.5c0 .552-.448 1-1 1h-20.5c-.552 0-1-.448-1-1v-2.5z" fill="#2fdf84"/><path d="m7.75 10.75c-.552 0-1 .448-1 1v10.75h22.5v-10.75c0-.552-.448-1-1-1z" fill="#f3f3f1"/><path d="m19.75 26.25s.245 1.765 1.48 3h.02-6.5c1.25-1.25 1.48-3 1.48-3z" fill="#2fdf84"/><path d="m21.75 13.25h-7.5c-.276 0-.5-.224-.5-.5v-5h8.5v5c0 .276-.224.5-.5.5z" fill="#2fdf84"/><path d="m9 25v-2.5h-2.25v2.5c0 .552.448 1 1 1h2.25c-.552 0-1-.448-1-1z" fill="#00b871"/><path d="m10 10.75h-2.25c-.552 0-1 .448-1 1v10.75h2.25v-10.75c0-.552.448-1 1-1z" fill="#d5dbe1"/><path d="m16.23 26.25s-.23 1.75-1.48 3h2.25c1.25-1.25 1.48-3 1.48-3z" fill="#00b871"/><path d="m16 12.75v-5h-2.25v5c0 .276.224.5.5.5h2.25c-.276 0-.5-.224-.5-.5z" fill="#00b871"/><path d="m28.25 27h-20.5c-.965 0-1.75-.785-1.75-1.75v-13.5c0-.965.785-1.75 1.75-1.75h3v1.5h-3c-.138 0-.25.112-.25.25v13.5c0 .138.112.25.25.25h20.5c.138 0 .25-.112.25-.25v-13.5c0-.138-.112-.25-.25-.25h-3.25v-1.5h3.25c.965 0 1.75.785 1.75 1.75v13.5c0 .965-.785 1.75-1.75 1.75z"/><path d="m6.75 22h22.5v1.5h-22.5z"/><path d="m21.25 30h-6.5c-.303 0-.577-.183-.693-.463s-.052-.603.163-.817c1.041-1.041 1.265-2.552 1.267-2.567l1.487.195c-.008.059-.147 1.066-.744 2.152h3.523c-.591-1.081-.738-2.088-.746-2.147l1.485-.208c.002.015.221 1.458 1.184 2.489.196.135.324.36.324.616 0 .414-.336.75-.75.75z"/><path d="m21.75 14h-7.5c-.689 0-1.25-.561-1.25-1.25v-5c0-.414.336-.75.75-.75h8.5c.414 0 .75.336.75.75v5c0 .689-.561 1.25-1.25 1.25zm-7.25-1.5h7v-4h-7z"/><path d="m12 7h12v1.5h-12z"/><path d="m19.076 16.296-1.076-1.505-1.076 1.506-1.221-.872 1.686-2.36c.281-.394.939-.394 1.221 0l1.686 2.36z"/><path d="m17.25 6h1.5v2.5h-1.5z"/></svg>